<svg width="454" height="426" viewBox="0 0 454 426" fill="none" xmlns="http://www.w3.org/2000/svg">
<rect width="454" height="426" fill="white"/>
<path fill-rule="evenodd" clip-rule="evenodd" d="M139.03 192.99V224.277C139.03 227.158 137.771 231.464 126.18 231.464C114.589 231.464 113.327 227.158 113.327 224.277V192.99H106.743V224.634C106.743 232.381 113.147 235.758 125.035 235.758C131.116 235.758 135.597 234.738 138.958 233.789V247.932H145.441L145.407 192.99H139.03ZM79.3016 178.059C72.3618 178.059 62.0664 179.507 62.0664 186.606V192.99H54.5482V196.651H62.0664V234.762H68.3692V196.651H78.2903L78.2934 192.99H68.3692V187.394C68.3692 181.944 74.7152 181.076 79.3016 181.076C86.8909 181.076 90.667 181.649 90.667 189.976L90.6639 234.762H96.9636V179.067H90.667C87.1569 179.067 85.4621 178.059 79.3016 178.059ZM393.067 196.986C389.257 196.986 386.165 200.096 386.165 203.924C386.165 207.759 389.257 210.872 393.067 210.872C396.915 210.872 399.992 207.759 399.992 203.924C399.992 200.096 396.915 196.986 393.067 196.986Z" fill="#FF8200"/>
<path fill-rule="evenodd" clip-rule="evenodd" d="M342.769 202.445C347.668 201.887 352.056 201.614 354.821 201.605C353.299 195.724 346.347 193.426 334.876 193.426C324.968 193.426 316.126 196.855 316.126 196.855V205.024C316.126 205.024 322.252 200.079 335.047 200.079C339.237 200.079 341.55 200.83 342.769 202.445ZM189.888 222.972C189.532 227.498 184.667 229.947 179.942 229.947C169.705 229.947 168.27 225.486 168.27 215.295C168.27 205.117 170.277 200.665 179.438 200.665C185.376 200.665 189.532 203.099 189.888 207.622C190.172 211.281 190.321 213.15 190.321 215.295C190.321 217.447 190.172 219.533 189.888 222.972ZM190.321 195.922C186.093 194.273 182.877 193.411 177.647 193.411C161.686 193.411 156.818 199.444 156.818 215.295C156.818 231.082 163.975 237.186 179.942 237.186C189.671 237.186 196.744 233.537 201.773 233.537V180.495H190.321V195.922ZM376.185 194.381L364.733 194.384V201.27H376.185V194.381ZM344.105 222.869C344.105 228.834 338.538 230.341 334.725 230.341C328.221 230.341 324.89 228.378 324.89 224.156C324.89 217.025 334.014 213.358 344.105 212.747V222.869ZM378.597 205.344L375.272 205.35C328.843 205.35 313.797 213.993 313.797 223.877C313.797 233.057 321.671 237.084 334.416 237.084C342.639 237.084 350.961 233.522 355.316 233.522V211.265C360.746 210.577 364.807 210.465 364.807 210.465V236.197H376.25V216.827C376.25 209.907 378.597 205.344 378.597 205.344ZM284.661 229.947C279.933 229.947 275.071 227.498 274.716 222.972C274.431 219.533 274.286 217.447 274.286 215.295C274.286 213.15 274.431 211.281 274.716 207.619C275.071 203.099 279.231 200.665 285.169 200.665C294.326 200.665 296.333 205.117 296.333 215.295C296.333 225.486 294.901 229.947 284.661 229.947ZM286.953 193.411C281.727 193.411 278.507 194.273 274.286 195.922V180.495H262.834V233.537C267.859 233.537 274.926 237.186 284.661 237.186C300.626 237.186 307.785 231.082 307.785 215.295C307.785 199.444 302.914 193.411 286.953 193.411ZM241.94 223.26C241.94 226.14 241.003 230.437 232.415 230.437C223.826 230.437 222.902 226.14 222.902 223.26V194.418H211.44V226.063C211.443 233.81 219.382 237.186 231.276 237.186C241.795 237.186 248.586 233.956 251.954 233.596L253.386 233.447V194.418H241.94V223.26Z" fill="#006496"/>
</svg>
