<svg width="453" height="426" viewBox="0 0 453 426" fill="none" xmlns="http://www.w3.org/2000/svg">
<rect width="453" height="426" fill="white"/>
<g clip-path="url(#clip0_162_99)">
<path d="M76.3019 249.484C98.1148 249.484 115.798 231.87 115.798 210.142C115.798 188.413 98.1148 170.799 76.3019 170.799C54.489 170.799 36.8062 188.413 36.8062 210.142C36.8062 231.87 54.489 249.484 76.3019 249.484Z" fill="#FCDD53" stroke="#E42A2B" stroke-width="6"/>
<path d="M102.913 219.377C101.589 220.937 100.385 221.776 98.2173 222.136H74.3754C73.1712 221.536 73.0508 220.697 74.3754 220.097H87.8617C89.0659 220.097 90.1496 219.737 90.9925 218.658C94.9662 213.38 99.5419 208.342 103.034 202.585C101.469 204.024 100.505 204.864 98.2173 205.224H81.7206C80.0348 205.224 78.7103 205.823 77.6265 207.263C74.3754 211.461 71.0038 215.539 67.7526 219.737C59.2032 229.933 53.3029 207.503 64.8627 211.101C63.2973 209.062 61.6115 207.143 60.0461 205.104C58.842 203.904 57.0358 203.784 55.8316 205.104C48.6068 214.22 48.4864 228.253 63.5381 229.573H95.5682C97.9765 226.094 100.505 222.736 102.913 219.377ZM97.9765 190.83C96.8928 191.67 96.1703 192.03 94.4845 192.03H79.9144C78.4694 192.03 76.6632 192.629 75.6999 193.829L66.4281 205.584L69.0772 208.942C70.1609 207.623 71.2446 206.303 72.3283 204.984C73.4121 203.784 74.6162 203.305 76.302 203.305H85.333C89.9088 203.305 95.809 193.469 97.9765 190.83Z" fill="#478C3E"/>
<path fill-rule="evenodd" clip-rule="evenodd" d="M395.158 198.747L389.619 218.898H381.672L390.823 185.792H398.891L405.514 205.823L411.053 185.792H419L409.728 218.898H401.781L395.158 198.747ZM363.128 207.143H370.955L370.473 195.268L363.128 207.143ZM376.976 185.792L379.625 218.898H371.316L370.955 212.78H359.997L356.264 218.898H347.956L368.908 185.792H376.976ZM340.611 192.27H331.098L332.904 185.792H359.756L357.95 192.27H348.558L341.092 218.898H333.265L340.611 192.27ZM307.135 208.222C307.135 211.941 309.062 214.46 313.277 213.74C319.177 212.54 318.695 205.344 311.711 204.624C305.811 203.904 302.801 199.106 304.246 193.469C306.774 188.071 310.989 185.792 317.13 185.073H317.25C321.826 184.113 328.69 185.313 329.412 191.07C329.532 192.03 329.773 193.949 329.171 194.908H321.706C321.706 193.229 321.344 191.67 319.658 191.19C314.119 189.631 307.135 196.108 318.816 199.106C321.826 199.826 325.92 200.906 326.763 204.264C327.967 210.141 324.475 215.659 319.779 218.298C315.444 220.097 309.182 220.217 304.727 219.377C299.188 217.458 298.104 213.98 299.068 208.222H307.135ZM301.596 185.792C298.466 196.827 295.455 207.862 292.445 218.898H284.498L293.649 185.792H301.596ZM264.75 198.747L280.042 185.792H289.675L273.299 199.466L281.608 218.898H271.854L266.436 204.864L262.101 208.462L259.09 218.898H251.263L260.535 185.792H268.362L264.75 198.747ZM234.405 198.986H250.059L248.373 204.984H232.84L230.793 212.42H248.614L246.928 218.898H221.039L230.191 185.792H255.719L253.912 192.27H236.332L234.405 198.986ZM204.543 191.91L202.616 198.986H208.637C210.804 198.986 212.851 198.027 213.694 195.508C214.176 193.949 213.815 192.749 212.249 192.15C210.202 191.55 206.831 191.91 204.543 191.91ZM200.93 204.744L198.763 212.9C203.218 212.9 209.6 214.22 211.286 208.702C211.768 205.823 209.721 204.744 207.192 204.744H200.93ZM214.658 185.792C218.752 185.792 223.207 187.352 222.364 192.27C221.762 196.108 218.39 199.706 214.898 201.026V201.265C219.956 201.265 219.956 207.862 218.752 211.221C216.945 216.499 211.286 218.898 205.988 218.898H189.13L198.281 185.792H214.658ZM181.423 192.389H166.251L168.178 185.792H192.983L191.418 191.91L169.502 212.3H186.722L185.036 218.898H158.063L159.99 211.941L181.423 192.389ZM143.975 185.792C142.168 192.27 140.242 198.747 138.436 205.104C137.713 208.462 137.833 214.1 142.77 213.38C146.744 212.9 149.875 208.822 150.718 205.104C152.404 198.747 154.089 192.27 155.896 185.792H163.722C161.314 194.548 159.99 206.423 154.33 214.1C150.357 217.938 146.744 219.617 140.844 219.617C131.331 219.617 129.043 215.299 130.247 206.303C132.054 199.466 133.98 192.629 135.907 185.792H143.975Z" fill="#0F477F"/>
<path fill-rule="evenodd" clip-rule="evenodd" d="M354.097 241.687L348.678 252.003H343.38L342.898 235.21H348.317L348.076 245.526L353.374 235.21H358.311L357.83 245.526L363.248 235.21H368.908L359.034 252.003H353.615L354.097 241.687ZM342.417 234.85L341.333 238.809H341.092C339.406 238.809 339.045 238.689 337.48 239.288C335.192 240.608 334.108 242.407 333.386 245.166L331.58 252.003H325.559L331.098 235.21H335.914L335.192 237.489C337.239 235.57 339.768 234.85 342.417 234.85ZM322.789 232.811L323.753 228.853H329.051L327.967 232.811H322.789ZM327.245 235.21L322.669 252.003H317.491L322.187 235.21H327.245ZM383.598 254.641C386.97 254.641 386.729 254.641 388.535 251.763L386.007 235.21H392.148L392.87 245.645L398.409 235.21H403.828L393.472 252.962C390.703 257.4 388.174 258 382.635 258L383.598 254.641ZM401.42 246.485H406.357C406.116 247.565 406.116 248.044 406.838 248.884C408.644 250.323 410.692 249.124 411.655 247.445C412.136 244.446 406.236 245.406 404.189 243.367C403.708 242.767 403.467 242.407 403.467 241.567C403.467 239.888 403.948 238.329 405.032 237.009C405.755 236.29 406.597 235.81 407.561 235.45C409.126 234.85 410.692 234.73 412.257 234.73C413.341 234.73 414.184 234.73 415.267 234.85C418.278 235.33 418.278 237.489 418.278 239.768H413.581L413.702 239.288C413.702 237.729 412.498 237.729 411.414 237.729C409.969 237.729 408.885 238.329 408.644 239.888C408.644 240.608 409.006 240.968 409.608 241.207C413.943 241.927 418.518 242.767 416.712 247.565C415.869 249.604 414.304 251.043 412.257 251.883C410.932 252.362 409.247 252.482 407.802 252.482C406.597 252.482 405.393 252.482 404.189 252.123C403.105 251.643 402.383 251.163 401.66 250.323C400.938 248.884 400.818 248.164 401.058 246.485H401.42ZM311.109 244.206C308.942 244.206 305.209 245.046 304.486 247.325C304.005 248.284 304.848 249.004 305.691 249.364C309.303 249.364 309.905 246.845 311.109 244.206ZM301.837 240.488C301.837 236.65 306.895 235.21 310.146 234.73C313.277 234.73 315.565 234.61 317.13 237.369C317.25 238.209 317.371 238.689 317.25 239.528C316.648 242.527 313.517 249.124 314.722 251.883V252.003H309.423V250.563C298.707 258.24 294.853 244.086 305.931 242.647C306.895 242.407 312.193 241.927 312.193 239.888C312.193 236.53 308.219 237.849 307.015 239.648C307.015 239.888 306.774 240.368 306.774 240.488H301.837ZM377.819 244.206C375.651 244.206 371.918 245.046 371.196 247.325C370.714 248.284 371.557 249.004 372.4 249.364C376.012 249.364 376.614 246.845 377.819 244.206ZM368.547 240.488C368.547 236.65 373.604 235.21 376.855 234.73C379.986 234.73 382.274 234.61 383.839 237.369C383.96 238.209 384.08 238.689 383.96 239.528C383.358 242.527 380.227 249.124 381.431 251.883V252.003H376.133V250.563C365.416 258.24 361.563 244.086 372.641 242.647C373.604 242.407 378.902 241.927 378.902 239.888C378.902 236.53 374.929 237.849 373.724 239.648C373.724 239.888 373.484 240.368 373.484 240.488H368.547Z" fill="#0F477F"/>
</g>
<defs>
<clipPath id="clip0_162_99">
<rect width="384" height="89" fill="white" transform="translate(35 169)"/>
</clipPath>
</defs>
</svg>
